# xmcd
#
# Track frame offsets:
#	150
#	16617
#	38545
#	58140
#	77997
#	102042
#	123147
#	139622
#	162127
#	178902
#	196625
#	210340
#
# Disc length: 3026 seconds
#
# Revision: 1
# Processed by: cddbd v1.4PL0 Copyright (c) Steve Scherf et al.
# Submitted via: EasyCDDAExtractor 5.0.7
#
DISCID=8b0bd00c
DTITLE=Various Artist - The Gioi Nhac Tre #2
DYEAR=1900
DGENRE=
TTITLE0=Thai Thao  - Vu dieu mambo
TTITLE1=Cao Lam - Yeu nhau di
TTITLE2=Ngoc Hue - Tinh em dang hien
TTITLE3=Thanh Tung - Nang Vanina
TTITLE4=Mai Ngoc Khanh - Duoi anh denmau
TTITLE5=Hai Ly - Em nao co biet
TTITLE6=Vi Lan - Chang Lang tu
TTITLE7=Cao Lam - Cam on em yeu
TTITLE8=Thuy Van - Gia biet nguoi yeu
TTITLE9=Thuy Vy - Tinh yeu dam say
TTITLE10=Khanh Dung - Cuoc tinh tan
TTITLE11=Mai Ngoc Khanh - Anh yeu em chang
EXTD=
EXTT0=
EXTT1=
EXTT2=
EXTT3=
EXTT4=
EXTT5=
EXTT6=
EXTT7=
EXTT8=
EXTT9=
EXTT10=
EXTT11=
PLAYORDER=
